HIERARCHY
ROOT reference
{
  OFFSET 90.5021 0 -1.75576
  CHANNELS 6 Xposition Yposition Zposition Zrotation Xrotation Yrotation
  JOINT root
  {
    OFFSET -1.88076 89.672 7.2429
    CHANNELS 6 Xposition Yposition Zposition Zrotation Xrotation Yrotation
    JOINT Hips
    {
      OFFSET 0 0 0
      CHANNELS 6 Xposition Yposition Zposition Zrotation Xrotation Yrotation
      JOINT Spine
      {
        OFFSET -0.018718 -0.106522 -0.009742
        CHANNELS 6 Xposition Yposition Zposition Zrotation Xrotation Yrotation
        JOINT Spine1
        {
          OFFSET 5.29351 17.3803 3.7948
          CHANNELS 6 Xposition Yposition Zposition Zrotation Xrotation Yrotation
          JOINT Spine2
          {
            OFFSET 5.43159 16.7656 5.83003
            CHANNELS 6 Xposition Yposition Zposition Zrotation Xrotation Yrotation
            JOINT Neck
            {
              OFFSET 7.98206 14.5573 8.29933
              CHANNELS 6 Xposition Yposition Zposition Zrotation Xrotation Yrotation
              JOINT Head
              {
                OFFSET 5.15806 7.85472 6.68496
                CHANNELS 6 Xposition Yposition Zposition Zrotation Xrotation Yrotation
                End Site
                {
                  OFFSET 0 0 0
                }
              }
            }
            JOINT RightShoulder
            {
              OFFSET 6.13946 13.8236 11.3544
              CHANNELS 6 Xposition Yposition Zposition Zrotation Xrotation Yrotation
              JOINT RightArm
              {
                OFFSET -6.84125 -5.66371 13.4062
                CHANNELS 6 Xposition Yposition Zposition Zrotation Xrotation Yrotation
                JOINT RightForearm
                {
                  OFFSET 1.58335 -12.2354 26.6918
                  CHANNELS 6 Xposition Yposition Zposition Zrotation Xrotation Yrotation
                  JOINT RightHand
                  {
                    OFFSET 13.4686 -2.25176 20.8549
                    CHANNELS 6 Xposition Yposition Zposition Zrotation Xrotation Yrotation
                    End Site
                    {
                      OFFSET 0 0 0
                    }
                  }
                }
              }
            }
            JOINT LeftShoulder
            {
              OFFSET 9.8341 15.2777 5.25269
              CHANNELS 6 Xposition Yposition Zposition Zrotation Xrotation Yrotation
              JOINT LeftArm
              {
                OFFSET 7.35777 2.97698 -13.986
                CHANNELS 6 Xposition Yposition Zposition Zrotation Xrotation Yrotation
                JOINT LeftForearm
                {
                  OFFSET -7.69279 -14.0259 -24.673
                  CHANNELS 6 Xposition Yposition Zposition Zrotation Xrotation Yrotation
                  JOINT LeftHand
                  {
                    OFFSET 9.79607 -21.4658 8.04087
                    CHANNELS 6 Xposition Yposition Zposition Zrotation Xrotation Yrotation
                    End Site
                    {
                      OFFSET 0 0 0
                    }
                  }
                }
              }
            }
          }
        }
      }
      JOINT RightUpLeg
      {
        OFFSET -4.8494 0.340745 8.2296
        CHANNELS 6 Xposition Yposition Zposition Zrotation Xrotation Yrotation
        JOINT RightLeg
        {
          OFFSET -7.0693 -43.3897 9.72419
          CHANNELS 6 Xposition Yposition Zposition Zrotation Xrotation Yrotation
          JOINT RightFoot
          {
            OFFSET -18.2546 -36.3362 -6.48248
            CHANNELS 6 Xposition Yposition Zposition Zrotation Xrotation Yrotation
            JOINT RightToe
            {
              OFFSET 10.8157 -7.73918 12.1353
              CHANNELS 6 Xposition Yposition Zposition Zrotation Xrotation Yrotation
              End Site
              {
                OFFSET 0 0 0
              }
            }
          }
        }
      }
      JOINT LeftUpLeg
      {
        OFFSET 4.8494 -0.340766 -8.22959
        CHANNELS 6 Xposition Yposition Zposition Zrotation Xrotation Yrotation
        JOINT LeftLeg
        {
          OFFSET 22.4044 -38.9341 3.06195
          CHANNELS 6 Xposition Yposition Zposition Zrotation Xrotation Yrotation
          JOINT LeftFoot
          {
            OFFSET -3.26817 -41.0184 -1.54195
            CHANNELS 6 Xposition Yposition Zposition Zrotation Xrotation Yrotation
            JOINT LeftToe
            {
              OFFSET 16.2654 -7.71782 -0.107092
              CHANNELS 6 Xposition Yposition Zposition Zrotation Xrotation Yrotation
              End Site
              {
                OFFSET 0 0 0
              }
            }
          }
        }
      }
    }
  }
}
MOTION
Frames:	4
Frame Time:	0.0333333
56.4502 0 -0.234959 0 0 -0 2.08873 87.5875 3.05345 1.3622 -0.783549 11.8969 0 8e-06 0 -0.673098 -1.12707 0.308567 -0.018718 -0.106522 -0.009742 0.248407 0.518806 -3.01589 5.29351 17.3803 3.7948 -0.191423 0.486472 -3.91264 5.43159 16.7656 5.83003 -0.520599 0.122225 -2.63284 7.98206 14.5573 8.29933 -0.270503 -0.00412578 -0.0900765 5.15806 7.85472 6.68496 -0.487817 0.223134 -0.220078 6.13946 13.8236 11.3544 0.566651 0.653698 0.868795 -6.84125 -5.66371 13.4062 -0.382198 -1.75317 -2.17069 1.58335 -12.2354 26.6918 0.010991 -0.0133097 0.0222746 13.4686 -2.25176 20.8549 0.126494 0.0425546 -0.347205 9.8341 15.2777 5.25269 0.248412 0.0182791 0.901042 7.35777 2.97698 -13.986 -2.25448 -1.34962 -0.365426 -7.69279 -14.0259 -24.673 -0.296743 0.627598 0.177451 9.79607 -21.4658 8.04087 0.240963 0.0183377 -0.6718 -4.8494 0.340745 8.2296 31.9437 -2.38778 -4.61119 -7.0693 -43.3897 9.72419 -1.31868 1.57852 -0.535232 -18.2546 -36.3362 -6.48248 -16.1626 12.5425 -3.71237 10.8157 -7.73918 12.1353 -4.15383 -2.33293 -0.395721 4.8494 -0.340766 -8.22959 -27.9129 5.58524 0.434732 22.4044 -38.9341 3.06195 -16.0153 2.74887 0.764448 -3.26817 -41.0184 -1.54195 12.7697 -8.64043 0.0458545 16.2654 -7.71782 -0.107092 29.8439 6.03447 -1.11045 
58.6261 0 -0.311907 0 0 -0 2.34227 87.9355 3.75164 1.16611 -0.600297 11.6977 0 8e-06 0 -0.778221 -1.3043 0.355798 -0.018718 -0.106522 -0.009742 0.338005 0.510321 -3.01065 5.29351 17.3803 3.7948 -0.0483625 0.498112 -3.84837 5.43159 16.7656 5.83003 -0.417951 0.135051 -2.60411 7.98206 14.5573 8.29933 -0.210698 -0.0502482 -0.116421 5.15806 7.85472 6.68496 -0.420932 0.0955676 -0.254267 6.13946 13.8236 11.3544 0.526825 0.608261 0.805573 -6.84125 -5.66371 13.4062 -0.689152 -1.42611 -2.01573 1.58335 -12.2354 26.6918 0.005779 -0.00699182 0.0117047 13.4686 -2.25176 20.8549 0.173621 0.0698748 -0.347324 9.8341 15.2777 5.25269 0.270782 0.0737547 0.870618 7.35777 2.97698 -13.986 -2.2651 -1.14042 -0.401391 -7.69279 -14.0259 -24.673 -0.160075 0.339181 0.095469 9.79607 -21.4658 8.04087 0.287885 0.0173663 -0.636444 -4.8494 0.340745 8.2296 30.9789 -1.84988 -4.74647 -7.0693 -43.3897 9.72419 -1.66455 1.99731 -0.670528 -18.2546 -36.3362 -6.48248 -14.8385 10.9202 -3.68608 10.8157 -7.73918 12.1353 -4.30234 -2.41555 -0.412958 4.8494 -0.340766 -8.22959 -27.0496 6.48638 -0.531638 22.4044 -38.9341 3.06195 -18.3589 3.12839 0.939377 -3.26817 -41.0184 -1.54195 5.43481 -13.0757 -1.71719 16.2654 -7.71782 -0.107092 35.4429 10.2273 -2.43119 
62.6148 0 -0.838529 0 0 -0 2.46195 88.6379 5.0494 0.641167 -0.544551 11.4635 -1.42109e-14 8e-06 0 -0.67507 -1.13038 0.309451 -0.018718 -0.106522 -0.009742 0.411588 0.474008 -2.79361 5.29351 17.3803 3.7948 0.0924076 0.461536 -3.58807 5.43159 16.7656 5.83003 -0.296451 0.125082 -2.4413 7.98206 14.5573 8.29933 -0.148855 -0.0152614 -0.245442 5.15806 7.85472 6.68496 -0.26304 0.0873387 -0.477625 6.13946 13.8236 11.3544 0.54617 0.726136 0.708622 -6.84125 -5.66371 13.4062 -0.877158 -1.41629 -2.27823 1.58335 -12.2354 26.6918 -0.0736148 0.0892958 -0.149243 13.4686 -2.25176 20.8549 0.25197 0.093837 -0.485453 9.8341 15.2777 5.25269 0.25829 0.135492 0.695629 7.35777 2.97698 -13.986 -1.62167 -0.871203 -0.580522 -7.69279 -14.0259 -24.673 0.02081 -0.0441765 -0.012362 9.79607 -21.4658 8.04087 0.343981 -0.0038937 -0.499296 -4.8494 0.340745 8.2296 28.9434 -0.773705 -5.10172 -7.0693 -43.3897 9.72419 -1.76694 2.12164 -0.710168 -18.2546 -36.3362 -6.48248 -12.9449 8.3179 -3.50928 10.8157 -7.73918 12.1353 -4.66994 -2.61975 -0.456525 4.8494 -0.340766 -8.22959 -22.3998 7.53554 -1.09014 22.4044 -38.9341 3.06195 -26.0477 4.31551 1.61884 -3.26817 -41.0184 -1.54195 -11.4768 -19.3862 -8.73446 16.2654 -7.71782 -0.107092 35.5482 17.3364 -1.63917 
64.6095 0 -0.923183 0 0 -0 2.31189 88.9392 5.62259 0.335745 -0.662953 11.5158 1.42109e-14 8e-06 0 -0.499928 -0.835809 0.230194 -0.018718 -0.106522 -0.009742 0.403631 0.441662 -2.67241 5.29351 17.3803 3.7948 0.0855318 0.400899 -3.50601 5.43159 16.7656 5.83003 -0.291847 0.0880194 -2.38262 7.98206 14.5573 8.29933 -0.194233 0.0299037 -0.26005 5.15806 7.85472 6.68496 -0.300072 0.197 -0.516569 6.13946 13.8236 11.3544 0.513566 0.6816 0.666501 -6.84125 -5.66371 13.4062 -0.966217 -1.41698 -2.25586 1.58335 -12.2354 26.6918 -0.130219 0.158269 -0.264208 13.4686 -2.25176 20.8549 0.387286 0.175294 -0.536135 9.8341 15.2777 5.25269 0.277643 0.183092 0.669678 7.35777 2.97698 -13.986 -1.12815 -0.754497 -0.644222 -7.69279 -14.0259 -24.673 0.110134 -0.234211 -0.0653199 9.79607 -21.4658 8.04087 0.37763 -0.0134606 -0.415466 -4.8494 0.340745 8.2296 27.9608 -0.381513 -5.38727 -7.0693 -43.3897 9.72419 -1.72615 2.07208 -0.694399 -18.2546 -36.3362 -6.48248 -12.1192 7.25643 -3.42648 10.8157 -7.73918 12.1353 -4.88593 -2.73955 -0.482735 4.8494 -0.340766 -8.22959 -19.0607 7.73955 -0.475107 22.4044 -38.9341 3.06195 -30.3492 4.93506 2.06597 -3.26817 -41.0184 -1.54195 -16.3443 -18.9504 -11.179 16.2654 -7.71782 -0.107092 28.6306 17.2838 1.24341 
